<svg width="881" height="246" viewBox="0 0 881 246" fill="none" xmlns="http://www.w3.org/2000/svg">
<mask id="path-1-inside-1_101_2" fill="white">
<path d="M43.8556 88.44C50.149 88.44 55.6423 89.72 60.3356 92.28C65.1356 94.84 68.8156 98.2 71.3756 102.36V89.72H98.7356V178.84C98.7356 187.053 97.0823 194.467 93.7756 201.08C90.5756 207.8 85.6156 213.133 78.8956 217.08C72.2823 221.027 64.0156 223 54.0956 223C40.869 223 30.149 219.853 21.9356 213.56C13.7223 207.373 9.02894 198.947 7.85561 188.28H34.8956C35.749 191.693 37.7756 194.36 40.9756 196.28C44.1756 198.307 48.1223 199.32 52.8156 199.32C58.469 199.32 62.949 197.667 66.2556 194.36C69.669 191.16 71.3756 185.987 71.3756 178.84V166.2C68.709 170.36 65.029 173.773 60.3356 176.44C55.6423 179 50.149 180.28 43.8556 180.28C36.4956 180.28 29.829 178.413 23.8556 174.68C17.8823 170.84 13.1356 165.453 9.61561 158.52C6.20227 151.48 4.49561 143.373 4.49561 134.2C4.49561 125.027 6.20227 116.973 9.61561 110.04C13.1356 103.107 17.8823 97.7733 23.8556 94.04C29.829 90.3067 36.4956 88.44 43.8556 88.44ZM71.3756 134.36C71.3756 127.533 69.4556 122.147 65.6156 118.2C61.8823 114.253 57.2956 112.28 51.8556 112.28C46.4156 112.28 41.7756 114.253 37.9356 118.2C34.2023 122.04 32.3356 127.373 32.3356 134.2C32.3356 141.027 34.2023 146.467 37.9356 150.52C41.7756 154.467 46.4156 156.44 51.8556 156.44C57.2956 156.44 61.8823 154.467 65.6156 150.52C69.4556 146.573 71.3756 141.187 71.3756 134.36ZM159.169 180.28C150.423 180.28 142.529 178.413 135.489 174.68C128.556 170.947 123.063 165.613 119.009 158.68C115.063 151.747 113.089 143.64 113.089 134.36C113.089 125.187 115.116 117.133 119.169 110.2C123.223 103.16 128.769 97.7733 135.809 94.04C142.849 90.3067 150.743 88.44 159.489 88.44C168.236 88.44 176.129 90.3067 183.169 94.04C190.209 97.7733 195.756 103.16 199.809 110.2C203.863 117.133 205.889 125.187 205.889 134.36C205.889 143.533 203.809 151.64 199.649 158.68C195.596 165.613 189.996 170.947 182.849 174.68C175.809 178.413 167.916 180.28 159.169 180.28ZM159.169 156.6C164.396 156.6 168.823 154.68 172.449 150.84C176.183 147 178.049 141.507 178.049 134.36C178.049 127.213 176.236 121.72 172.609 117.88C169.089 114.04 164.716 112.12 159.489 112.12C154.156 112.12 149.729 114.04 146.209 117.88C142.689 121.613 140.929 127.107 140.929 134.36C140.929 141.507 142.636 147 146.049 150.84C149.569 154.68 153.943 156.6 159.169 156.6ZM270.164 155.8V179H256.244C246.324 179 238.591 176.6 233.044 171.8C227.498 166.893 224.724 158.947 224.724 147.96V112.44H213.844V89.72H224.724V67.96H252.084V89.72H270.004V112.44H252.084V148.28C252.084 150.947 252.724 152.867 254.004 154.04C255.284 155.213 257.418 155.8 260.404 155.8H270.164ZM279.964 134.2C279.964 125.027 281.671 116.973 285.084 110.04C288.604 103.107 293.351 97.7733 299.324 94.04C305.298 90.3067 311.964 88.44 319.324 88.44C325.618 88.44 331.111 89.72 335.804 92.28C340.604 94.84 344.284 98.2 346.844 102.36V89.72H374.204V179H346.844V166.36C344.178 170.52 340.444 173.88 335.644 176.44C330.951 179 325.458 180.28 319.164 180.28C311.911 180.28 305.298 178.413 299.324 174.68C293.351 170.84 288.604 165.453 285.084 158.52C281.671 151.48 279.964 143.373 279.964 134.2ZM346.844 134.36C346.844 127.533 344.924 122.147 341.084 118.2C337.351 114.253 332.764 112.28 327.324 112.28C321.884 112.28 317.244 114.253 313.404 118.2C309.671 122.04 307.804 127.373 307.804 134.2C307.804 141.027 309.671 146.467 313.404 150.52C317.244 154.467 321.884 156.44 327.324 156.44C332.764 156.44 337.351 154.467 341.084 150.52C344.924 146.573 346.844 141.187 346.844 134.36ZM421.358 104.6C424.558 99.6933 428.558 95.8533 433.358 93.08C438.158 90.2 443.491 88.76 449.358 88.76V117.72H441.838C435.011 117.72 429.891 119.213 426.478 122.2C423.065 125.08 421.358 130.2 421.358 137.56V179H393.998V89.72H421.358V104.6ZM456.996 134.2C456.996 125.027 458.702 116.973 462.116 110.04C465.636 103.107 470.382 97.7733 476.356 94.04C482.329 90.3067 488.996 88.44 496.356 88.44C502.222 88.44 507.556 89.6667 512.356 92.12C517.262 94.5733 521.102 97.88 523.876 102.04V60.6H551.236V179H523.876V166.2C521.316 170.467 517.636 173.88 512.836 176.44C508.142 179 502.649 180.28 496.356 180.28C488.996 180.28 482.329 178.413 476.356 174.68C470.382 170.84 465.636 165.453 462.116 158.52C458.702 151.48 456.996 143.373 456.996 134.2ZM523.876 134.36C523.876 127.533 521.956 122.147 518.116 118.2C514.382 114.253 509.796 112.28 504.356 112.28C498.916 112.28 494.276 114.253 490.436 118.2C486.702 122.04 484.836 127.373 484.836 134.2C484.836 141.027 486.702 146.467 490.436 150.52C494.276 154.467 498.916 156.44 504.356 156.44C509.796 156.44 514.382 154.467 518.116 150.52C521.956 146.573 523.876 141.187 523.876 134.36ZM611.669 180.28C602.923 180.28 595.029 178.413 587.989 174.68C581.056 170.947 575.563 165.613 571.509 158.68C567.563 151.747 565.589 143.64 565.589 134.36C565.589 125.187 567.616 117.133 571.669 110.2C575.723 103.16 581.269 97.7733 588.309 94.04C595.349 90.3067 603.243 88.44 611.989 88.44C620.736 88.44 628.629 90.3067 635.669 94.04C642.709 97.7733 648.256 103.16 652.309 110.2C656.363 117.133 658.389 125.187 658.389 134.36C658.389 143.533 656.309 151.64 652.149 158.68C648.096 165.613 642.496 170.947 635.349 174.68C628.309 178.413 620.416 180.28 611.669 180.28ZM611.669 156.6C616.896 156.6 621.323 154.68 624.949 150.84C628.683 147 630.549 141.507 630.549 134.36C630.549 127.213 628.736 121.72 625.109 117.88C621.589 114.04 617.216 112.12 611.989 112.12C606.656 112.12 602.229 114.04 598.709 117.88C595.189 121.613 593.429 127.107 593.429 134.36C593.429 141.507 595.136 147 598.549 150.84C602.069 154.68 606.443 156.6 611.669 156.6Z"/>
</mask>
<path d="M43.8556 88.44C50.149 88.44 55.6423 89.72 60.3356 92.28C65.1356 94.84 68.8156 98.2 71.3756 102.36V89.72H98.7356V178.84C98.7356 187.053 97.0823 194.467 93.7756 201.08C90.5756 207.8 85.6156 213.133 78.8956 217.08C72.2823 221.027 64.0156 223 54.0956 223C40.869 223 30.149 219.853 21.9356 213.56C13.7223 207.373 9.02894 198.947 7.85561 188.28H34.8956C35.749 191.693 37.7756 194.36 40.9756 196.28C44.1756 198.307 48.1223 199.32 52.8156 199.32C58.469 199.32 62.949 197.667 66.2556 194.36C69.669 191.16 71.3756 185.987 71.3756 178.84V166.2C68.709 170.36 65.029 173.773 60.3356 176.44C55.6423 179 50.149 180.28 43.8556 180.28C36.4956 180.28 29.829 178.413 23.8556 174.68C17.8823 170.84 13.1356 165.453 9.61561 158.52C6.20227 151.48 4.49561 143.373 4.49561 134.2C4.49561 125.027 6.20227 116.973 9.61561 110.04C13.1356 103.107 17.8823 97.7733 23.8556 94.04C29.829 90.3067 36.4956 88.44 43.8556 88.44ZM71.3756 134.36C71.3756 127.533 69.4556 122.147 65.6156 118.2C61.8823 114.253 57.2956 112.28 51.8556 112.28C46.4156 112.28 41.7756 114.253 37.9356 118.2C34.2023 122.04 32.3356 127.373 32.3356 134.2C32.3356 141.027 34.2023 146.467 37.9356 150.52C41.7756 154.467 46.4156 156.44 51.8556 156.44C57.2956 156.44 61.8823 154.467 65.6156 150.52C69.4556 146.573 71.3756 141.187 71.3756 134.36ZM159.169 180.28C150.423 180.28 142.529 178.413 135.489 174.68C128.556 170.947 123.063 165.613 119.009 158.68C115.063 151.747 113.089 143.64 113.089 134.36C113.089 125.187 115.116 117.133 119.169 110.2C123.223 103.16 128.769 97.7733 135.809 94.04C142.849 90.3067 150.743 88.44 159.489 88.44C168.236 88.44 176.129 90.3067 183.169 94.04C190.209 97.7733 195.756 103.16 199.809 110.2C203.863 117.133 205.889 125.187 205.889 134.36C205.889 143.533 203.809 151.64 199.649 158.68C195.596 165.613 189.996 170.947 182.849 174.68C175.809 178.413 167.916 180.28 159.169 180.28ZM159.169 156.6C164.396 156.6 168.823 154.68 172.449 150.84C176.183 147 178.049 141.507 178.049 134.36C178.049 127.213 176.236 121.72 172.609 117.88C169.089 114.04 164.716 112.12 159.489 112.12C154.156 112.12 149.729 114.04 146.209 117.88C142.689 121.613 140.929 127.107 140.929 134.36C140.929 141.507 142.636 147 146.049 150.84C149.569 154.68 153.943 156.6 159.169 156.6ZM270.164 155.8V179H256.244C246.324 179 238.591 176.6 233.044 171.8C227.498 166.893 224.724 158.947 224.724 147.96V112.44H213.844V89.72H224.724V67.96H252.084V89.72H270.004V112.44H252.084V148.28C252.084 150.947 252.724 152.867 254.004 154.04C255.284 155.213 257.418 155.8 260.404 155.8H270.164ZM279.964 134.2C279.964 125.027 281.671 116.973 285.084 110.04C288.604 103.107 293.351 97.7733 299.324 94.04C305.298 90.3067 311.964 88.44 319.324 88.44C325.618 88.44 331.111 89.72 335.804 92.28C340.604 94.84 344.284 98.2 346.844 102.36V89.72H374.204V179H346.844V166.36C344.178 170.52 340.444 173.88 335.644 176.44C330.951 179 325.458 180.28 319.164 180.28C311.911 180.28 305.298 178.413 299.324 174.68C293.351 170.84 288.604 165.453 285.084 158.52C281.671 151.48 279.964 143.373 279.964 134.2ZM346.844 134.36C346.844 127.533 344.924 122.147 341.084 118.2C337.351 114.253 332.764 112.28 327.324 112.28C321.884 112.28 317.244 114.253 313.404 118.2C309.671 122.04 307.804 127.373 307.804 134.2C307.804 141.027 309.671 146.467 313.404 150.52C317.244 154.467 321.884 156.44 327.324 156.44C332.764 156.44 337.351 154.467 341.084 150.52C344.924 146.573 346.844 141.187 346.844 134.36ZM421.358 104.6C424.558 99.6933 428.558 95.8533 433.358 93.08C438.158 90.2 443.491 88.76 449.358 88.76V117.72H441.838C435.011 117.72 429.891 119.213 426.478 122.2C423.065 125.08 421.358 130.2 421.358 137.56V179H393.998V89.72H421.358V104.6ZM456.996 134.2C456.996 125.027 458.702 116.973 462.116 110.04C465.636 103.107 470.382 97.7733 476.356 94.04C482.329 90.3067 488.996 88.44 496.356 88.44C502.222 88.44 507.556 89.6667 512.356 92.12C517.262 94.5733 521.102 97.88 523.876 102.04V60.6H551.236V179H523.876V166.2C521.316 170.467 517.636 173.88 512.836 176.44C508.142 179 502.649 180.28 496.356 180.28C488.996 180.28 482.329 178.413 476.356 174.68C470.382 170.84 465.636 165.453 462.116 158.52C458.702 151.48 456.996 143.373 456.996 134.2ZM523.876 134.36C523.876 127.533 521.956 122.147 518.116 118.2C514.382 114.253 509.796 112.28 504.356 112.28C498.916 112.28 494.276 114.253 490.436 118.2C486.702 122.04 484.836 127.373 484.836 134.2C484.836 141.027 486.702 146.467 490.436 150.52C494.276 154.467 498.916 156.44 504.356 156.44C509.796 156.44 514.382 154.467 518.116 150.52C521.956 146.573 523.876 141.187 523.876 134.36ZM611.669 180.28C602.923 180.28 595.029 178.413 587.989 174.68C581.056 170.947 575.563 165.613 571.509 158.68C567.563 151.747 565.589 143.64 565.589 134.36C565.589 125.187 567.616 117.133 571.669 110.2C575.723 103.16 581.269 97.7733 588.309 94.04C595.349 90.3067 603.243 88.44 611.989 88.44C620.736 88.44 628.629 90.3067 635.669 94.04C642.709 97.7733 648.256 103.16 652.309 110.2C656.363 117.133 658.389 125.187 658.389 134.36C658.389 143.533 656.309 151.64 652.149 158.68C648.096 165.613 642.496 170.947 635.349 174.68C628.309 178.413 620.416 180.28 611.669 180.28ZM611.669 156.6C616.896 156.6 621.323 154.68 624.949 150.84C628.683 147 630.549 141.507 630.549 134.36C630.549 127.213 628.736 121.72 625.109 117.88C621.589 114.04 617.216 112.12 611.989 112.12C606.656 112.12 602.229 114.04 598.709 117.88C595.189 121.613 593.429 127.107 593.429 134.36C593.429 141.507 595.136 147 598.549 150.84C602.069 154.68 606.443 156.6 611.669 156.6Z" fill="white" stroke="white" stroke-width="2" mask="url(#path-1-inside-1_101_2)"/>
<path d="M726 123.5H849C866.397 123.5 880.5 137.603 880.5 155V194C880.5 211.397 866.397 225.5 849 225.5H726C708.603 225.5 694.5 211.397 694.5 194V155C694.5 137.603 708.603 123.5 726 123.5Z" fill="#1167D1" stroke="#1167D1"/>
<path d="M733.912 149.64V197H722.968V149.64H733.912ZM739.667 179.08C739.667 175.411 740.35 172.189 741.715 169.416C743.123 166.643 745.022 164.509 747.411 163.016C749.8 161.523 752.467 160.776 755.411 160.776C757.928 160.776 760.126 161.288 762.003 162.312C763.923 163.336 765.395 164.68 766.419 166.344V161.288H777.363V197H766.419V191.944C765.352 193.608 763.859 194.952 761.939 195.976C760.062 197 757.864 197.512 755.347 197.512C752.446 197.512 749.8 196.765 747.411 195.272C745.022 193.736 743.123 191.581 741.715 188.808C740.35 185.992 739.667 182.749 739.667 179.08ZM766.419 179.144C766.419 176.413 765.651 174.259 764.115 172.68C762.622 171.101 760.787 170.312 758.611 170.312C756.435 170.312 754.579 171.101 753.043 172.68C751.55 174.216 750.803 176.349 750.803 179.08C750.803 181.811 751.55 183.987 753.043 185.608C754.579 187.187 756.435 187.976 758.611 187.976C760.787 187.976 762.622 187.187 764.115 185.608C765.651 184.029 766.419 181.875 766.419 179.144ZM796.225 166.344C797.249 164.68 798.721 163.336 800.641 162.312C802.561 161.288 804.758 160.776 807.233 160.776C810.177 160.776 812.843 161.523 815.233 163.016C817.622 164.509 819.499 166.643 820.865 169.416C822.273 172.189 822.977 175.411 822.977 179.08C822.977 182.749 822.273 185.992 820.865 188.808C819.499 191.581 817.622 193.736 815.233 195.272C812.843 196.765 810.177 197.512 807.233 197.512C804.715 197.512 802.518 197.021 800.641 196.04C798.763 195.016 797.291 193.672 796.225 192.008V197H785.281V149.64H796.225V166.344ZM811.841 179.08C811.841 176.349 811.073 174.216 809.537 172.68C808.043 171.101 806.187 170.312 803.969 170.312C801.793 170.312 799.937 171.101 798.401 172.68C796.907 174.259 796.161 176.413 796.161 179.144C796.161 181.875 796.907 184.029 798.401 185.608C799.937 187.187 801.793 187.976 803.969 187.976C806.145 187.976 808.001 187.187 809.537 185.608C811.073 183.987 811.841 181.811 811.841 179.08ZM843.246 197.512C840.131 197.512 837.358 196.979 834.926 195.912C832.494 194.845 830.574 193.395 829.166 191.56C827.758 189.683 826.969 187.592 826.798 185.288H837.614C837.742 186.525 838.318 187.528 839.342 188.296C840.366 189.064 841.625 189.448 843.118 189.448C844.483 189.448 845.529 189.192 846.254 188.68C847.022 188.125 847.406 187.421 847.406 186.568C847.406 185.544 846.873 184.797 845.806 184.328C844.739 183.816 843.011 183.261 840.622 182.664C838.062 182.067 835.929 181.448 834.222 180.808C832.515 180.125 831.043 179.08 829.806 177.672C828.569 176.221 827.95 174.28 827.95 171.848C827.95 169.8 828.505 167.944 829.614 166.28C830.766 164.573 832.43 163.229 834.606 162.248C836.825 161.267 839.449 160.776 842.478 160.776C846.958 160.776 850.478 161.885 853.038 164.104C855.641 166.323 857.134 169.267 857.518 172.936H847.406C847.235 171.699 846.681 170.717 845.742 169.992C844.846 169.267 843.651 168.904 842.158 168.904C840.878 168.904 839.897 169.16 839.214 169.672C838.531 170.141 838.19 170.803 838.19 171.656C838.19 172.68 838.723 173.448 839.79 173.96C840.899 174.472 842.606 174.984 844.91 175.496C847.555 176.179 849.71 176.861 851.374 177.544C853.038 178.184 854.489 179.251 855.726 180.744C857.006 182.195 857.667 184.157 857.71 186.632C857.71 188.723 857.113 190.6 855.918 192.264C854.766 193.885 853.081 195.165 850.862 196.104C848.686 197.043 846.147 197.512 843.246 197.512Z" fill="white"/>
</svg>
