<svg width="164" height="45" viewBox="0 0 164 45" fill="none" xmlns="http://www.w3.org/2000/svg">
<g clip-path="url(#clip0_252_3)">
<path d="M8.13634 16.3185C9.30393 16.3185 10.3231 16.5475 11.1938 17.0054C12.0843 17.4632 12.7671 18.0642 13.242 18.8083V16.5475H18.318V32.4876C18.318 33.9566 18.0113 35.2827 17.3978 36.4655C16.8041 37.6675 15.8839 38.6213 14.6372 39.3273C13.4102 40.0333 11.8765 40.3862 10.0361 40.3862C7.58225 40.3862 5.59341 39.8233 4.06961 38.6977C2.54583 37.5911 1.6751 36.084 1.45741 34.1761H6.47403C6.63235 34.7865 7.00834 35.2636 7.60202 35.607C8.19571 35.9695 8.92792 36.1507 9.79865 36.1507C10.8475 36.1507 11.6787 35.8551 12.2921 35.2636C12.9254 34.6912 13.242 33.766 13.242 32.4876V30.2268C12.7473 30.9709 12.0646 31.5813 11.1938 32.0584C10.3231 32.5163 9.30393 32.7452 8.13634 32.7452C6.77087 32.7452 5.53404 32.4113 4.42582 31.7436C3.31762 31.0567 2.43698 30.0932 1.78394 28.8532C1.15068 27.594 0.834045 26.1439 0.834045 24.5032C0.834045 22.8625 1.15068 21.422 1.78394 20.1819C2.43698 18.9419 3.31762 17.9879 4.42582 17.3202C5.53404 16.6524 6.77087 16.3185 8.13634 16.3185ZM13.242 24.5319C13.242 23.3108 12.8858 22.3474 12.1734 21.6415C11.4808 20.9355 10.6298 20.5826 9.62054 20.5826C8.61128 20.5826 7.75044 20.9355 7.03802 21.6415C6.3454 22.3283 5.99908 23.2822 5.99908 24.5032C5.99908 25.7243 6.3454 26.6973 7.03802 27.4223C7.75044 28.1282 8.61128 28.4811 9.62054 28.4811C10.6298 28.4811 11.4808 28.1282 12.1734 27.4223C12.8858 26.7163 13.242 25.753 13.242 24.5319ZM29.53 32.7452C27.9073 32.7452 26.4428 32.4113 25.1367 31.7436C23.8505 31.0759 22.8314 30.1218 22.0792 28.8818C21.3472 27.6417 20.9809 26.1917 20.9809 24.5319C20.9809 22.8912 21.357 21.4506 22.1089 20.2106C22.861 18.9514 23.89 17.9879 25.1961 17.3202C26.5022 16.6524 27.9667 16.3185 29.5893 16.3185C31.2121 16.3185 32.6765 16.6524 33.9826 17.3202C35.2887 17.9879 36.3178 18.9514 37.0697 20.2106C37.8219 21.4506 38.1977 22.8912 38.1977 24.5319C38.1977 26.1726 37.8118 27.6226 37.04 28.8818C36.2881 30.1218 35.2492 31.0759 33.9232 31.7436C32.6171 32.4113 31.1528 32.7452 29.53 32.7452ZM29.53 28.5098C30.4997 28.5098 31.321 28.1663 31.9937 27.4795C32.6865 26.7927 33.0327 25.8102 33.0327 24.5319C33.0327 23.2535 32.6963 22.2711 32.0234 21.5842C31.3704 20.8974 30.5591 20.554 29.5893 20.554C28.5999 20.554 27.7786 20.8974 27.1255 21.5842C26.4725 22.2519 26.146 23.2346 26.146 24.5319C26.146 25.8102 26.4627 26.7927 27.0959 27.4795C27.7489 28.1663 28.5604 28.5098 29.53 28.5098ZM50.1224 28.3667V32.5163H47.5399C45.6995 32.5163 44.2648 32.087 43.2357 31.2285C42.2068 30.3508 41.6921 28.9295 41.6921 26.9644V20.6112H39.6736V16.5475H41.6921V12.6554H46.7681V16.5475H50.0927V20.6112H46.7681V27.0216C46.7681 27.4986 46.8868 27.8421 47.1243 28.0519C47.3618 28.2617 47.7577 28.3667 48.3117 28.3667H50.1224ZM51.9405 24.5032C51.9405 22.8625 52.2572 21.422 52.8904 20.1819C53.5435 18.9419 54.4242 17.9879 55.5323 17.3202C56.6407 16.6524 57.8774 16.3185 59.2429 16.3185C60.4106 16.3185 61.4296 16.5475 62.3003 17.0054C63.1908 17.4632 63.8736 18.0642 64.3485 18.8083V16.5475H69.4245V32.5163H64.3485V30.2554C63.8539 30.9995 63.1612 31.6005 62.2706 32.0584C61.4 32.5163 60.3809 32.7452 59.2132 32.7452C57.8675 32.7452 56.6407 32.4113 55.5323 31.7436C54.4242 31.0567 53.5435 30.0932 52.8904 28.8532C52.2572 27.594 51.9405 26.1439 51.9405 24.5032ZM64.3485 24.5319C64.3485 23.3108 63.9923 22.3474 63.2799 21.6415C62.5873 20.9355 61.7363 20.5826 60.7271 20.5826C59.7178 20.5826 58.857 20.9355 58.1445 21.6415C57.452 22.3283 57.1056 23.2822 57.1056 24.5032C57.1056 25.7243 57.452 26.6973 58.1445 27.4223C58.857 28.1282 59.7178 28.4811 60.7271 28.4811C61.7363 28.4811 62.5873 28.1282 63.2799 27.4223C63.9923 26.7163 64.3485 25.753 64.3485 24.5319ZM78.1728 19.2089C78.7665 18.3313 79.5086 17.6445 80.3991 17.1485C81.2896 16.6333 82.279 16.3758 83.3675 16.3758V21.5556H81.9724C80.7058 21.5556 79.7559 21.8226 79.1227 22.3569C78.4895 22.872 78.1728 23.7878 78.1728 25.1042V32.5163H73.0968V16.5475H78.1728V19.2089ZM84.7846 24.5032C84.7846 22.8625 85.1011 21.422 85.7345 20.1819C86.3875 18.9419 87.268 17.9879 88.3763 17.3202C89.4845 16.6524 90.7214 16.3185 92.0869 16.3185C93.1752 16.3185 94.1648 16.5379 95.0553 16.9767C95.9655 17.4155 96.6779 18.007 97.1925 18.7511V11.339H102.269V32.5163H97.1925V30.2268C96.7176 30.99 96.0349 31.6005 95.1443 32.0584C94.2735 32.5163 93.2544 32.7452 92.0869 32.7452C90.7214 32.7452 89.4845 32.4113 88.3763 31.7436C87.268 31.0567 86.3875 30.0932 85.7345 28.8532C85.1011 27.594 84.7846 26.1439 84.7846 24.5032ZM97.1925 24.5319C97.1925 23.3108 96.8363 22.3474 96.1239 21.6415C95.4312 20.9355 94.5803 20.5826 93.5711 20.5826C92.5618 20.5826 91.701 20.9355 90.9886 21.6415C90.2958 22.3283 89.9496 23.2822 89.9496 24.5032C89.9496 25.7243 90.2958 26.6973 90.9886 27.4223C91.701 28.1282 92.5618 28.4811 93.5711 28.4811C94.5803 28.4811 95.4312 28.1282 96.1239 27.4223C96.8363 26.7163 97.1925 25.753 97.1925 24.5319ZM113.48 32.7452C111.858 32.7452 110.393 32.4113 109.087 31.7436C107.801 31.0759 106.782 30.1218 106.03 28.8818C105.298 27.6417 104.931 26.1917 104.931 24.5319C104.931 22.8912 105.307 21.4506 106.059 20.2106C106.812 18.9514 107.84 17.9879 109.147 17.3202C110.453 16.6524 111.917 16.3185 113.54 16.3185C115.163 16.3185 116.627 16.6524 117.933 17.3202C119.239 17.9879 120.268 18.9514 121.02 20.2106C121.772 21.4506 122.148 22.8912 122.148 24.5319C122.148 26.1726 121.762 27.6226 120.991 28.8818C120.239 30.1218 119.2 31.0759 117.874 31.7436C116.568 32.4113 115.103 32.7452 113.48 32.7452ZM113.48 28.5098C114.45 28.5098 115.271 28.1663 115.944 27.4795C116.637 26.7927 116.983 25.8102 116.983 24.5319C116.983 23.2535 116.647 22.2711 115.974 21.5842C115.321 20.8974 114.51 20.554 113.54 20.554C112.55 20.554 111.729 20.8974 111.076 21.5842C110.423 22.2519 110.096 23.2346 110.096 24.5319C110.096 25.8102 110.413 26.7927 111.046 27.4795C111.699 28.1663 112.511 28.5098 113.48 28.5098Z" fill="white"/>
<path d="M157.511 22.5H134.692C131.413 22.5 128.755 25.0625 128.755 28.2236V35.1992C128.755 38.3602 131.413 40.9228 134.692 40.9228H157.511C160.79 40.9228 163.448 38.3602 163.448 35.1992V28.2236C163.448 25.0625 160.79 22.5 157.511 22.5Z" fill="#8F00D2"/>
<path d="M135.03 32.1728C135.03 31.5166 135.157 30.9403 135.41 30.4443C135.671 29.9483 136.023 29.5666 136.467 29.2996C136.91 29.0326 137.405 28.899 137.951 28.899C138.386 28.899 138.782 28.9868 139.138 29.1622C139.502 29.3377 139.787 29.5743 139.993 29.872V26.9072H142.024V35.378H139.993V34.4623C139.803 34.7676 139.53 35.0117 139.174 35.1949C138.826 35.378 138.418 35.4696 137.951 35.4696C137.405 35.4696 136.91 35.336 136.467 35.069C136.023 34.7942 135.671 34.4088 135.41 33.9128C135.157 33.4091 135.03 32.8291 135.03 32.1728ZM139.993 32.1843C139.993 31.6958 139.851 31.3105 139.566 31.0281C139.289 30.7457 138.948 30.6046 138.545 30.6046C138.141 30.6046 137.797 30.7457 137.512 31.0281C137.235 31.3029 137.096 31.6844 137.096 32.1728C137.096 32.6613 137.235 33.0505 137.512 33.3405C137.797 33.6229 138.141 33.764 138.545 33.764C138.948 33.764 139.289 33.6229 139.566 33.3405C139.851 33.058 139.993 32.6728 139.993 32.1843ZM149.738 32.0813C149.738 32.2644 149.726 32.4553 149.702 32.6536H145.107C145.139 33.0505 145.27 33.3557 145.499 33.5694C145.737 33.7754 146.026 33.8785 146.366 33.8785C146.872 33.8785 147.225 33.6724 147.423 33.2603H149.584C149.473 33.6801 149.271 34.0579 148.978 34.3936C148.693 34.7293 148.333 34.9926 147.898 35.1834C147.462 35.3743 146.975 35.4696 146.437 35.4696C145.788 35.4696 145.21 35.336 144.704 35.069C144.197 34.8019 143.801 34.4202 143.516 33.9243C143.231 33.4283 143.089 32.8482 143.089 32.1843C143.089 31.5204 143.227 30.9403 143.504 30.4443C143.789 29.9483 144.185 29.5666 144.692 29.2996C145.198 29.0326 145.78 28.899 146.437 28.899C147.078 28.899 147.648 29.0286 148.147 29.2882C148.646 29.5477 149.033 29.9178 149.311 30.3985C149.596 30.8793 149.738 31.4402 149.738 32.0813ZM147.66 31.5661C147.66 31.2304 147.541 30.9632 147.304 30.7648C147.067 30.5665 146.77 30.4672 146.413 30.4672C146.073 30.4672 145.784 30.5625 145.547 30.7534C145.317 30.9442 145.175 31.215 145.119 31.5661H147.66ZM153.789 33.5465L155.226 28.9905H157.387L155.036 35.378H152.531L150.18 28.9905H152.353L153.789 33.5465Z" fill="white"/>
</g>
<defs>
<clipPath id="clip0_252_3">
<rect width="163.448" height="44" fill="white" transform="translate(0 0.5)"/>
</clipPath>
</defs>
</svg>
